<svg width="203" height="203" viewBox="0 0 203 203" fill="none" xmlns="http://www.w3.org/2000/svg">
<g clip-path="url(#clip0_807_4446)">
<path fill-rule="evenodd" clip-rule="evenodd" d="M-0.335938 45.2083C29.8848 45.9282 54.1623 70.6509 54.1623 101.045C54.1623 131.439 29.8848 156.162 -0.335938 156.882V45.2083Z" fill="#00A7E5" fill-opacity="0.5"/>
<path fill-rule="evenodd" clip-rule="evenodd" d="M49.3516 45.2083C79.5724 45.9282 103.85 70.6509 103.85 101.045C103.85 131.439 79.5724 156.162 49.3516 156.882V45.2083Z" fill="#00A7E5" fill-opacity="0.5"/>
<path fill-rule="evenodd" clip-rule="evenodd" d="M99.0273 45.2083C129.248 45.9282 153.526 70.6509 153.526 101.045C153.526 131.439 129.248 156.162 99.0273 156.882V45.2083Z" fill="#00A7E5" fill-opacity="0.5"/>
<path fill-rule="evenodd" clip-rule="evenodd" d="M148.707 45.2083C178.928 45.9282 203.205 70.6509 203.205 101.045C203.205 131.439 178.928 156.162 148.707 156.882V45.2083Z" fill="#00A7E5" fill-opacity="0.5"/>
</g>
<defs>
<clipPath id="clip0_807_4446">
<rect width="202.203" height="202.203" fill="white"/>
</clipPath>
</defs>
</svg>
