<svg width="127" height="125" viewBox="0 0 127 125" fill="none" xmlns="http://www.w3.org/2000/svg">
<path d="M67.5049 56.2257C59.1149 56.2257 52.2969 63.0437 52.2969 71.4337C52.2969 79.8115 59.1149 86.6417 67.5049 86.6417C75.8827 86.6417 82.7129 79.8115 82.7129 71.4337C82.7129 63.0437 75.8766 56.2257 67.5049 56.2257ZM76.5651 68.0826L65.6648 77.6913C65.3236 77.9898 64.8849 78.1422 64.4645 78.1422C63.9953 78.1422 63.514 77.9533 63.1728 77.5938L59.1026 73.5358C58.3837 72.8169 58.3837 71.6471 59.1026 70.928C59.8216 70.2273 60.9732 70.2273 61.6922 70.928L64.5437 73.7795L74.1339 65.3224C74.8955 64.6522 76.0532 64.7314 76.7235 65.493C77.3937 66.2608 77.3145 67.4124 76.5651 68.0826Z" fill="#00A7E5" fill-opacity="0.4"/>
<path d="M93.3853 88.8286L91.1674 84.789C92.258 82.8697 93.0989 80.8409 93.6777 78.7205L98.089 77.441C98.8689 77.2095 99.4172 76.4905 99.4172 75.6801V67.2109C99.4172 66.4006 98.8872 65.6816 98.1073 65.4501L93.6778 64.1584C93.0989 62.038 92.2581 59.9908 91.1674 58.0898L93.3853 54.0503C93.7752 53.3313 93.6534 52.4418 93.0746 51.8691L87.0853 45.8798C86.5064 45.3009 85.6169 45.1608 84.904 45.569L80.8645 47.7869C78.9452 46.6963 76.9163 45.8554 74.7959 45.2583L73.5043 40.8471C73.2849 40.0672 72.5659 39.5188 71.7556 39.5188H63.2681C62.4577 39.5188 61.7388 40.0672 61.5194 40.8471L60.2094 45.2583C58.0891 45.8493 56.0601 46.6963 54.1409 47.7686L50.1013 45.569C49.4007 45.1608 48.5111 45.3009 47.9323 45.8798L41.943 51.8691C41.3642 52.4479 41.2423 53.3375 41.6323 54.0503L43.8501 58.0898C42.7595 60.0092 41.9186 62.038 41.3398 64.1584L36.9103 65.4501C36.1304 65.6816 35.582 66.3884 35.582 67.2109V75.6801C35.582 76.4905 36.1304 77.2095 36.9103 77.441L41.3398 78.7327C41.9186 80.8225 42.7595 82.8515 43.8501 84.783L41.6323 88.8225C41.2423 89.5415 41.3642 90.431 41.943 91.0037L47.9323 96.993C48.5111 97.5719 49.4007 97.6937 50.1013 97.3038L54.1409 95.1042C56.0602 96.1826 58.0891 97.0235 60.2094 97.6023L61.5194 102.032C61.7388 102.812 62.4577 103.342 63.2681 103.342H71.7556C72.5659 103.342 73.2849 102.812 73.5043 102.032L74.7959 97.6023C76.9042 97.0235 78.9453 96.1827 80.8645 95.092L84.904 97.3099C85.623 97.6998 86.5125 97.578 87.0853 96.9991L93.0746 91.0098C93.6473 90.4371 93.7752 89.5475 93.3853 88.8286ZM86.3784 71.4338C86.3784 81.8406 77.9091 90.3104 67.5017 90.3104C57.0828 90.3104 48.6251 81.8412 48.6251 71.4338C48.6251 61.0264 57.0821 52.5571 67.5017 52.5571C77.9085 52.5632 86.3784 61.0324 86.3784 71.4338Z" fill="#00A7E5" fill-opacity="0.4"/>
<path d="M115.112 98.4985C117.342 96.628 118.761 93.8192 118.761 90.6813C118.761 89.7308 118.621 88.823 118.39 87.9517C120.12 82.6325 121.01 77.0941 121.01 71.4335C121.01 57.444 115.459 43.9358 105.71 34.0171C105.71 33.9379 105.741 33.877 105.741 33.7978C105.32 26.5898 100.672 20.5578 94.2923 18.0595C96.5223 16.1707 97.9419 13.3618 97.9419 10.2301C97.9419 4.60014 93.3539 0 87.7118 0C82.0637 0 77.4818 4.60014 77.4818 10.2301C77.4818 13.3679 78.9014 16.1707 81.1131 18.0473C80.3149 18.358 79.5533 18.7358 78.8221 19.1562C75.1419 18.3458 71.3338 17.9254 67.4953 17.9254C43.2702 17.9254 22.28 34.0537 15.9301 57.2619C11.2994 58.2429 7.80217 62.3616 7.80217 67.2787C7.80217 70.4166 9.22183 73.2194 11.4335 75.096C7.95441 76.4547 4.94447 78.8858 2.85466 82.1333C1.17304 84.7411 0.186004 87.7632 0.00319648 90.8522C-0.0272694 91.3518 0.16161 91.8515 0.502815 92.2231C0.84402 92.5826 1.33146 92.7837 1.83107 92.802H18.4585C26.9581 112.379 46.0528 124.979 67.5 124.979C77.9982 124.979 88.1189 121.939 96.8257 116.199H124.78C125.28 116.181 125.749 115.98 126.09 115.608C126.431 115.249 126.602 114.767 126.572 114.268C126.139 107.029 121.49 101.009 115.111 98.4996L115.112 98.4985ZM90.8867 115.436C83.7276 119.257 75.7397 121.304 67.4898 121.304C48.0532 121.304 30.6943 110.184 22.4757 92.7892C28.7759 92.7892 34.1255 92.771 34.2656 92.771C34.7652 92.771 35.2343 92.5516 35.5755 92.1921C35.9167 91.8205 36.0873 91.333 36.0569 90.8334C35.6365 83.6133 30.9875 77.5934 24.6265 75.0951C26.8444 73.2063 28.2579 70.3974 28.2579 67.2657C28.2579 62.2146 24.5777 58.0166 19.7583 57.188C25.9974 36.1308 45.2937 21.581 67.4911 21.581C69.9893 21.581 72.469 21.7821 74.9001 22.1599C74.0288 23.0494 73.2185 24.0182 72.5118 25.0906C70.8301 27.6984 69.8431 30.7083 69.6725 33.7912C69.642 34.303 69.8126 34.7905 70.1721 35.1622C70.5133 35.5217 71.0007 35.741 71.5003 35.741H102.245C111.976 45.1607 117.344 57.798 117.344 71.4275C117.344 75.5463 116.844 79.5982 115.863 83.5463C114.005 81.627 111.403 80.445 108.533 80.445C102.885 80.445 98.3033 85.033 98.3033 90.6751C98.3033 93.8129 99.723 96.6035 101.935 98.4923C98.4556 99.851 95.4456 102.282 93.3376 105.53C91.656 108.137 90.6689 111.147 90.4983 114.249C90.4678 114.687 90.6262 115.095 90.8882 115.437L90.8867 115.436Z" fill="#00A7E5" fill-opacity="0.4"/>
</svg>
