<svg width="147" height="181" viewBox="0 0 147 181" fill="none" xmlns="http://www.w3.org/2000/svg">
<path fill-rule="evenodd" clip-rule="evenodd" d="M117.443 30.7415L75.0399 21.551C73.9596 21.3162 72.9942 21.3162 71.9191 21.551L29.5159 30.7467C26.0871 31.4878 23.7072 34.4416 23.7072 37.9487V67.3469C23.3211 101.541 50.1461 132.996 71.5908 138.689C72.8851 139.033 74.075 139.033 75.3744 138.689C96.8138 132.995 123.644 101.545 123.258 67.3469L123.253 37.9434C123.253 34.4363 120.872 31.4878 117.443 30.7415ZM115.904 67.3943C116.065 82.4514 110.33 97.2988 101.552 109.381C95.1273 118.221 84.6576 128.419 73.9025 131.467C73.6468 131.545 73.3598 131.555 73.0832 131.477C62.3166 128.44 51.8322 118.226 45.4072 109.386C36.462 97.0796 31.0555 82.7064 31.0555 67.3994V39.1182C31.0555 38.4397 31.5252 37.8291 32.2141 37.683L73.1409 28.8109C73.3496 28.7639 73.5688 28.7587 73.788 28.8057L114.677 37.6726C115.372 37.7874 115.904 38.3928 115.904 39.1234L115.904 67.3943ZM33.9925 40.2981V67.3943C33.9925 82.096 39.1904 95.8372 47.7804 107.658C53.7403 115.857 63.5469 125.549 73.4777 128.534C83.4092 125.549 93.2149 115.857 99.175 107.658C107.63 96.0256 113.078 81.893 112.963 67.3943V40.2981L73.4763 31.7392L33.9925 40.2981ZM100.496 64.4256C102.046 66.842 101.337 70.0829 98.9254 71.6329L63.28 94.7423C60.8114 96.4384 57.4036 95.7026 55.8535 93.1349L46.3813 77.4472C44.8991 74.9891 45.6976 71.7586 48.1556 70.2816C50.6137 68.7994 53.839 69.5979 55.3212 72.056L62.017 83.1514L93.2776 62.8597C95.6992 61.3044 98.9464 62.0145 100.496 64.4256Z" fill="#00A7E5" fill-opacity="0.4"/>
</svg>
