<svg width="157" height="192" viewBox="0 0 157 192" fill="none" xmlns="http://www.w3.org/2000/svg">
<path d="M75.4382 108.843C74.7443 106.373 73.3732 105.351 72.3461 104.929C69.9924 103.963 66.5006 104.574 63.0033 106.572C58.4845 109.154 53.9491 109.381 50.2242 107.227C47.2543 105.507 45.2002 102.42 44.4342 98.5397C44.3287 98.0123 44.2565 97.5127 44.2066 97.0075C44.1788 96.8188 44.1622 96.6134 44.1455 96.3636C44.1178 95.9139 44.1011 95.5365 44.1011 95.1645C44.1011 89.8353 46.3883 85.3276 50.2187 83.1071C53.9436 80.9476 58.479 81.1807 62.9978 83.7621C66.4951 85.755 69.9869 86.3712 72.3406 85.4052C73.3676 84.9833 74.7388 83.9619 75.4272 81.4971C75.6215 80.8087 75.788 79.3098 75.9101 77.267C76.0545 74.9521 76.2654 73.2811 76.5374 72.3041C77.7199 68.0795 80.3067 66.2365 82.2608 65.4372C85.8913 63.9438 90.8653 64.6544 95.5617 67.3356C98.6204 69.0843 101.557 69.323 103.833 68.0018C106.253 66.5973 107.702 63.5497 107.702 59.8469C107.702 59.5749 107.691 59.2918 107.669 58.9476C107.658 58.7478 107.647 58.5979 107.63 58.4646C107.591 58.0983 107.541 57.7374 107.464 57.3488C106.953 54.7564 105.665 52.7468 103.839 51.692C101.563 50.3763 98.6316 50.615 95.5673 52.3582C90.8709 55.0394 85.9025 55.75 82.2663 54.2566C80.3067 53.4517 77.7254 51.6086 76.5375 47.3786C74.9553 41.7052 75.2551 34.1388 76.0601 26.4723C72.596 25.6119 68.971 25.1511 65.235 25.1511C41.7536 25.1511 22.4901 43.2152 20.6085 66.1977C20.6085 66.1977 20.5919 69.6507 19.2707 72.1099L7.3354 94.382C6.81913 95.3423 7.20217 96.5192 8.18476 96.991L19.0154 102.204C19.998 102.681 20.8029 103.958 20.8029 105.046V127.79C20.8029 128.883 21.6966 129.772 22.7902 129.772H45.3734C46.467 129.772 47.5939 130.632 47.8881 131.681L47.8992 131.72L47.8271 144.805C47.9103 145.121 48.2545 145.376 48.582 145.376H74.657C75.845 136.039 77.4716 116.138 75.4397 108.843L75.4382 108.843Z" fill="#00A7E5" fill-opacity="0.4"/>
<path d="M148.99 94.382L137.055 72.11C135.739 69.6451 135.717 66.1977 135.717 66.1977C133.835 43.2152 114.572 25.1511 91.0903 25.1511C87.4819 25.1511 83.9791 25.5841 80.6205 26.3891C79.8378 33.7001 79.4769 41.1049 80.8925 46.1684C81.5864 48.6388 82.9576 49.6657 83.9846 50.0876C86.3383 51.0535 89.8302 50.4373 93.3275 48.4445C97.8462 45.8631 102.382 45.6355 106.107 47.7894C109.076 49.5103 111.136 52.5968 111.897 56.4773C112.002 56.9991 112.074 57.5043 112.124 58.0038C112.146 58.1926 112.157 58.398 112.18 58.6478C112.207 59.0974 112.224 59.4749 112.224 59.8469C112.224 65.1761 109.937 69.6838 106.107 71.9043C102.382 74.0638 97.8462 73.8307 93.3274 71.2493C89.8301 69.2564 86.3383 68.6402 83.9846 69.6062C82.9576 70.0281 81.5864 71.0495 80.8925 73.5143C80.7648 73.9695 80.5816 75.0021 80.4317 77.3613V77.3668C80.2874 79.8815 80.0709 81.6746 79.7822 82.7127C78.5943 86.9373 76.013 88.7803 74.0589 89.5797C70.4283 91.073 65.4544 90.3624 60.7579 87.6812C57.6992 85.9325 54.7625 85.6938 52.4865 87.015C50.0662 88.4195 48.6172 91.4671 48.6172 95.1699C48.6172 95.4364 48.6283 95.725 48.6505 96.0692C48.6616 96.2691 48.6783 96.4189 48.6894 96.5522C48.7227 96.9185 48.7782 97.2794 48.8559 97.668C49.3666 100.26 50.6545 102.27 52.4809 103.325C54.7515 104.64 57.6881 104.402 60.7524 102.659C65.4488 99.9829 70.4172 99.2724 74.0533 100.76C76.0129 101.565 78.5943 103.408 79.7822 107.638C81.9139 115.271 80.6537 133.841 79.1993 145.386H107.739C108.066 145.386 108.405 145.131 108.493 144.815L108.416 131.73L108.427 131.691C108.721 130.642 109.854 129.782 110.942 129.782H133.531C134.624 129.782 135.512 128.888 135.512 127.8L135.518 105.05C135.518 103.957 136.323 102.68 137.305 102.208L148.136 96.9953C149.119 96.5179 149.507 95.3465 148.991 94.3807L148.99 94.382Z" fill="#00A7E5" fill-opacity="0.4"/>
</svg>
